<svg xmlns="http://www.w3.org/2000/svg" width="206.602" height="206.587" viewBox="0 0 206.602 206.587">
  <g id="Group_15" data-name="Group 15" transform="translate(-297 -764)">
    <g id="Group_5" data-name="Group 5" transform="translate(1269 439.5)">
      <path id="Path_8" data-name="Path 8" d="M-868.385,305.5c-89.134,0,0,131,0,131S-779.251,305.5-868.385,305.5Zm-.45,58.972c-8.874,0-16.066-8.364-16.066-18.682s7.192-18.682,16.066-18.682,16.066,8.364,16.066,18.682S-859.961,364.472-868.835,364.472Z" transform="translate(0 19)" fill="#fff"/>
    </g>
    <g id="Group_8" data-name="Group 8" transform="translate(251 -150)">
      <g id="Group_7" data-name="Group 7" transform="translate(48 1062)">
        <path id="Path_14" data-name="Path 14" d="M-2344.69,232l-45.472,16.041L-2435.633,232-2471,264.083l80.839,24.5,80.839-24.5Z" transform="translate(2471 -232)" fill="none" stroke="#fff" stroke-linecap="round" stroke-linejoin="round" stroke-width="4"/>
        <path id="Path_15" data-name="Path 15" d="M-1894.708,267.367l-33.346-30.314L-1971,232l35.367,32.335Z" transform="translate(2097.31 -232)" fill="#fff" stroke="#fff" stroke-linecap="round" stroke-linejoin="round" stroke-width="4"/>
        <path id="Path_16" data-name="Path 16" d="M-2390.161,248.041v40.546l-80.839-24.5L-2435.633,232Z" transform="translate(2471 -232)" fill="#fff"/>
      </g>
    </g>
  </g>
</svg>
